<svg width="512" height="512" viewBox="0 0 512 512" fill="none" xmlns="http://www.w3.org/2000/svg">
  <rect width="512" height="512" rx="64" fill="#2563eb"/>
  <g transform="translate(64, 64)">
    <!-- Bus body -->
    <rect x="32" y="128" width="320" height="160" rx="16" fill="#fbbf24" stroke="#92400e" stroke-width="3"/>
    
    <!-- Bus windows -->
    <rect x="48" y="144" width="48" height="32" rx="4" fill="#38bdf8"/>
    <rect x="112" y="144" width="48" height="32" rx="4" fill="#38bdf8"/>
    <rect x="176" y="144" width="48" height="32" rx="4" fill="#38bdf8"/>
    <rect x="240" y="144" width="48" height="32" rx="4" fill="#38bdf8"/>
    <rect x="304" y="144" width="32" height="32" rx="4" fill="#38bdf8"/>
    
    <!-- Wheels -->
    <circle cx="96" cy="304" r="24" fill="#374151"/>
    <circle cx="96" cy="304" r="16" fill="#6b7280"/>
    <circle cx="288" cy="304" r="24" fill="#374151"/>
    <circle cx="288" cy="304" r="16" fill="#6b7280"/>
    
    <!-- Door -->
    <rect x="352" y="160" width="16" height="96" rx="2" fill="#92400e"/>
    
    <!-- School Bus text area -->
    <rect x="48" y="192" width="256" height="48" rx="4" fill="#fde047"/>
    
    <!-- Route indicator -->
    <circle cx="192" cy="96" r="32" fill="#10b981"/>
    <path d="M176 96 L188 108 L208 88" stroke="white" stroke-width="4" fill="none" stroke-linecap="round" stroke-linejoin="round"/>
  </g>
</svg>
